<svg xmlns="http://www.w3.org/2000/svg" version="1.1" xmlns:xlink="http://www.w3.org/1999/xlink" width="1000" height="1000"><style>
    #light-icon {
      display: inline;
    }
    #dark-icon {
      display: none;
    }

    @media (prefers-color-scheme: dark) {
      #light-icon {
        display: none;
      }
      #dark-icon {
        display: inline;
      }
    }
  </style><g id="light-icon"><svg xmlns="http://www.w3.org/2000/svg" version="1.1" xmlns:xlink="http://www.w3.org/1999/xlink" width="1000" height="1000"><g clip-path="url(#SvgjsClipPath1109)"><rect width="1000" height="1000" fill="#ffffff"></rect><g transform="matrix(5,0,0,5,0,0)"><svg xmlns="http://www.w3.org/2000/svg" version="1.1" xmlns:xlink="http://www.w3.org/1999/xlink" width="200" height="200"><svg xmlns="http://www.w3.org/2000/svg" version="1.1" xmlns:xlink="http://www.w3.org/1999/xlink" width="200" height="200"><svg xmlns="http://www.w3.org/2000/svg" version="1.1" xmlns:xlink="http://www.w3.org/1999/xlink" viewBox="0 0 200 200"><rect width="200" height="200" fill="url('#gradient')"></rect><defs><linearGradient id="SvgjsLinearGradient1001" gradientTransform="rotate(360 0.5 0.5)"><stop offset="0%" stop-color="#154e80"></stop><stop offset="100%" stop-color="#261b1d"></stop></linearGradient><clipPath id="SvgjsClipPath1109"><rect width="1000" height="1000" x="0" y="0" rx="500" ry="500"></rect></clipPath></defs><g><g fill="#87ced8" transform="matrix(1.399364834953325,0,0,1.399364834953325,28.05752034556383,110.35764337630901)" stroke="#2b3c33" stroke-width="0"><path d="M9.17-4.81L12.58-4.81Q12.51-3.33 11.78-2.19Q11.04-1.05 9.72-0.43Q8.40 0.20 6.70 0.20L6.70 0.20Q3.90 0.20 2.29-1.63Q0.67-3.46 0.67-6.79L0.67-6.79L0.67-7.49Q0.67-9.58 1.40-11.15Q2.13-12.71 3.50-13.57Q4.86-14.42 6.66-14.42L6.66-14.42Q9.25-14.42 10.82-13.06Q12.39-11.70 12.61-9.31L12.61-9.31L9.19-9.31Q9.15-10.61 8.54-11.17Q7.92-11.74 6.66-11.74L6.66-11.74Q5.38-11.74 4.79-10.78Q4.19-9.82 4.16-7.72L4.16-7.72L4.16-6.72Q4.16-4.44 4.73-3.47Q5.30-2.49 6.70-2.49L6.70-2.49Q7.88-2.49 8.51-3.05Q9.13-3.60 9.17-4.81L9.17-4.81ZM13.64-4.82L13.63-5.38Q13.63-6.96 14.25-8.20Q14.86-9.43 16.02-10.10Q17.17-10.76 18.72-10.76L18.72-10.76Q21.09-10.76 22.46-9.29Q23.83-7.82 23.83-5.29L23.83-5.29L23.83-5.18Q23.83-2.71 22.46-1.25Q21.08 0.20 18.74 0.20L18.74 0.20Q16.48 0.20 15.12-1.16Q13.75-2.51 13.64-4.82L13.64-4.82ZM16.93-5.77L16.92-5.18Q16.92-3.71 17.38-3.03Q17.84-2.34 18.74-2.34L18.74-2.34Q20.50-2.34 20.54-5.05L20.54-5.05L20.54-5.38Q20.54-8.22 18.72-8.22L18.72-8.22Q17.07-8.22 16.93-5.77L16.93-5.77ZM24.86-5.36L24.86-5.36Q24.86-7.87 25.95-9.32Q27.03-10.76 28.97-10.76L28.97-10.76Q30.39-10.76 31.36-9.65L31.36-9.65L31.36-15L34.66-15L34.66 0L31.70 0L31.53-1.13Q30.52 0.20 28.96 0.20L28.96 0.20Q27.07 0.20 25.97-1.25Q24.86-2.70 24.86-5.36ZM28.16-5.76L28.15-5.16Q28.15-2.34 29.79-2.34L29.79-2.34Q30.89-2.34 31.36-3.26L31.36-3.26L31.36-7.29Q30.91-8.22 29.81-8.22L29.81-8.22Q28.29-8.22 28.16-5.76L28.16-5.76ZM41.64 0.20L41.64 0.20Q39.21 0.20 37.71-1.25Q36.20-2.71 36.20-5.03L36.20-5.03L36.20-5.30Q36.20-6.92 36.80-8.16Q37.40-9.40 38.55-10.08Q39.71-10.76 41.29-10.76L41.29-10.76Q43.52-10.76 44.80-9.38Q46.09-8.00 46.09-5.53L46.09-5.53L46.09-4.25L39.55-4.25Q39.73-3.36 40.32-2.85Q40.92-2.34 41.87-2.34L41.87-2.34Q43.43-2.34 44.31-3.44L44.31-3.44L45.81-1.66Q45.20-0.81 44.07-0.31Q42.94 0.20 41.64 0.20ZM41.27-8.22L41.27-8.22Q39.82-8.22 39.55-6.31L39.55-6.31L42.87-6.31L42.87-6.56Q42.89-7.35 42.47-7.79Q42.05-8.22 41.27-8.22ZM53.87-10.64L53.81-7.59L52.72-7.67Q51.17-7.67 50.73-6.69L50.73-6.69L50.73 0L47.44 0L47.44-10.57L50.53-10.57L50.63-9.21Q51.46-10.76 52.95-10.76L52.95-10.76Q53.48-10.76 53.87-10.64L53.87-10.64ZM64.05 0L63.22-2.66L58.53-2.66L57.71 0L54.04 0L59.26-14.22L62.48-14.22L67.73 0L64.05 0ZM60.87-10.23L59.35-5.30L62.40-5.30L60.87-10.23ZM75.07-10.64L75.01-7.59L73.93-7.67Q72.37-7.67 71.93-6.69L71.93-6.69L71.93 0L68.64 0L68.64-10.57L71.73-10.57L71.84-9.21Q72.67-10.76 74.15-10.76L74.15-10.76Q74.68-10.76 75.07-10.64L75.07-10.64ZM76.22-10.57L79.31-10.57L79.41-9.33Q80.54-10.76 82.43-10.76L82.43-10.76Q84.43-10.76 85.14-9.17L85.14-9.17Q86.21-10.76 88.24-10.76L88.24-10.76Q91.46-10.76 91.54-6.88L91.54-6.88L91.54 0L88.24 0L88.24-6.67Q88.24-7.48 87.97-7.85Q87.70-8.22 86.97-8.22L86.97-8.22Q86.00-8.22 85.52-7.35L85.52-7.35L85.53-7.22L85.53 0L82.23 0L82.23-6.65Q82.23-7.48 81.96-7.85Q81.70-8.22 80.96-8.22L80.96-8.22Q80.01-8.22 79.51-7.35L79.51-7.35L79.51 0L76.22 0L76.22-10.57ZM98.96-2.97L98.96-2.97Q98.96-3.39 98.52-3.64Q98.08-3.90 96.85-4.17Q95.62-4.44 94.81-4.89Q94.01-5.33 93.59-5.97Q93.17-6.60 93.17-7.42L93.17-7.42Q93.17-8.88 94.38-9.82Q95.58-10.76 97.52-10.76L97.52-10.76Q99.61-10.76 100.88-9.81Q102.15-8.87 102.15-7.32L102.15-7.32L98.85-7.32Q98.85-8.59 97.51-8.59L97.51-8.59Q96.99-8.59 96.64-8.31Q96.29-8.02 96.29-7.59L96.29-7.59Q96.29-7.15 96.72-6.88Q97.15-6.60 98.09-6.43Q99.03-6.25 99.75-6.01L99.75-6.01Q102.13-5.19 102.13-3.07L102.13-3.07Q102.13-1.62 100.84-0.71Q99.56 0.20 97.52 0.20L97.52 0.20Q96.16 0.20 95.10-0.29Q94.03-0.78 93.44-1.62Q92.84-2.46 92.84-3.39L92.84-3.39L95.92-3.39Q95.94-2.66 96.41-2.32Q96.88-1.98 97.61-1.98L97.61-1.98Q98.28-1.98 98.62-2.26Q98.96-2.53 98.96-2.97Z"></path></g></g></svg><style>@media (prefers-color-scheme: light) { :root { filter: none; } }
@media (prefers-color-scheme: dark) { :root { filter: none; } }
</style></svg></svg></g></g></svg></g><g id="dark-icon"><svg xmlns="http://www.w3.org/2000/svg" version="1.1" xmlns:xlink="http://www.w3.org/1999/xlink" width="1000" height="1000"><g clip-path="url(#SvgjsClipPath1110)"><rect width="1000" height="1000" fill="#ffffff"></rect><g transform="matrix(5,0,0,5,0,0)"><svg xmlns="http://www.w3.org/2000/svg" version="1.1" xmlns:xlink="http://www.w3.org/1999/xlink" width="200" height="200"><svg xmlns="http://www.w3.org/2000/svg" version="1.1" xmlns:xlink="http://www.w3.org/1999/xlink" width="200" height="200"><svg xmlns="http://www.w3.org/2000/svg" version="1.1" xmlns:xlink="http://www.w3.org/1999/xlink" viewBox="0 0 200 200"><rect width="200" height="200" fill="url('#gradient')"></rect><defs><linearGradient id="SvgjsLinearGradient1001" gradientTransform="rotate(360 0.5 0.5)"><stop offset="0%" stop-color="#154e80"></stop><stop offset="100%" stop-color="#261b1d"></stop></linearGradient><clipPath id="SvgjsClipPath1110"><rect width="1000" height="1000" x="0" y="0" rx="350" ry="350"></rect></clipPath></defs><g><g fill="#87ced8" transform="matrix(1.399364834953325,0,0,1.399364834953325,28.05752034556383,110.35764337630901)" stroke="#2b3c33" stroke-width="0"><path d="M9.17-4.81L12.58-4.81Q12.51-3.33 11.78-2.19Q11.04-1.05 9.72-0.43Q8.40 0.20 6.70 0.20L6.70 0.20Q3.90 0.20 2.29-1.63Q0.67-3.46 0.67-6.79L0.67-6.79L0.67-7.49Q0.67-9.58 1.40-11.15Q2.13-12.71 3.50-13.57Q4.86-14.42 6.66-14.42L6.66-14.42Q9.25-14.42 10.82-13.06Q12.39-11.70 12.61-9.31L12.61-9.31L9.19-9.31Q9.15-10.61 8.54-11.17Q7.92-11.74 6.66-11.74L6.66-11.74Q5.38-11.74 4.79-10.78Q4.19-9.82 4.16-7.72L4.16-7.72L4.16-6.72Q4.16-4.44 4.73-3.47Q5.30-2.49 6.70-2.49L6.70-2.49Q7.88-2.49 8.51-3.05Q9.13-3.60 9.17-4.81L9.17-4.81ZM13.64-4.82L13.63-5.38Q13.63-6.96 14.25-8.20Q14.86-9.43 16.02-10.10Q17.17-10.76 18.72-10.76L18.72-10.76Q21.09-10.76 22.46-9.29Q23.83-7.82 23.83-5.29L23.83-5.29L23.83-5.18Q23.83-2.71 22.46-1.25Q21.08 0.20 18.74 0.20L18.74 0.20Q16.48 0.20 15.12-1.16Q13.75-2.51 13.64-4.82L13.64-4.82ZM16.93-5.77L16.92-5.18Q16.92-3.71 17.38-3.03Q17.84-2.34 18.74-2.34L18.74-2.34Q20.50-2.34 20.54-5.05L20.54-5.05L20.54-5.38Q20.54-8.22 18.72-8.22L18.72-8.22Q17.07-8.22 16.93-5.77L16.93-5.77ZM24.86-5.36L24.86-5.36Q24.86-7.87 25.95-9.32Q27.03-10.76 28.97-10.76L28.97-10.76Q30.39-10.76 31.36-9.65L31.36-9.65L31.36-15L34.66-15L34.66 0L31.70 0L31.53-1.13Q30.52 0.20 28.96 0.20L28.96 0.20Q27.07 0.20 25.97-1.25Q24.86-2.70 24.86-5.36ZM28.16-5.76L28.15-5.16Q28.15-2.34 29.79-2.34L29.79-2.34Q30.89-2.34 31.36-3.26L31.36-3.26L31.36-7.29Q30.91-8.22 29.81-8.22L29.81-8.22Q28.29-8.22 28.16-5.76L28.16-5.76ZM41.64 0.20L41.64 0.20Q39.21 0.20 37.71-1.25Q36.20-2.71 36.20-5.03L36.20-5.03L36.20-5.30Q36.20-6.92 36.80-8.16Q37.40-9.40 38.55-10.08Q39.71-10.76 41.29-10.76L41.29-10.76Q43.52-10.76 44.80-9.38Q46.09-8.00 46.09-5.53L46.09-5.53L46.09-4.25L39.55-4.25Q39.73-3.36 40.32-2.85Q40.92-2.34 41.87-2.34L41.87-2.34Q43.43-2.34 44.31-3.44L44.31-3.44L45.81-1.66Q45.20-0.81 44.07-0.31Q42.94 0.20 41.64 0.20ZM41.27-8.22L41.27-8.22Q39.82-8.22 39.55-6.31L39.55-6.31L42.87-6.31L42.87-6.56Q42.89-7.35 42.47-7.79Q42.05-8.22 41.27-8.22ZM53.87-10.64L53.81-7.59L52.72-7.67Q51.17-7.67 50.73-6.69L50.73-6.69L50.73 0L47.44 0L47.44-10.57L50.53-10.57L50.63-9.21Q51.46-10.76 52.95-10.76L52.95-10.76Q53.48-10.76 53.87-10.64L53.87-10.64ZM64.05 0L63.22-2.66L58.53-2.66L57.71 0L54.04 0L59.26-14.22L62.48-14.22L67.73 0L64.05 0ZM60.87-10.23L59.35-5.30L62.40-5.30L60.87-10.23ZM75.07-10.64L75.01-7.59L73.93-7.67Q72.37-7.67 71.93-6.69L71.93-6.69L71.93 0L68.64 0L68.64-10.57L71.73-10.57L71.84-9.21Q72.67-10.76 74.15-10.76L74.15-10.76Q74.68-10.76 75.07-10.64L75.07-10.64ZM76.22-10.57L79.31-10.57L79.41-9.33Q80.54-10.76 82.43-10.76L82.43-10.76Q84.43-10.76 85.14-9.17L85.14-9.17Q86.21-10.76 88.24-10.76L88.24-10.76Q91.46-10.76 91.54-6.88L91.54-6.88L91.54 0L88.24 0L88.24-6.67Q88.24-7.48 87.97-7.85Q87.70-8.22 86.97-8.22L86.97-8.22Q86.00-8.22 85.52-7.35L85.52-7.35L85.53-7.22L85.53 0L82.23 0L82.23-6.65Q82.23-7.48 81.96-7.85Q81.70-8.22 80.96-8.22L80.96-8.22Q80.01-8.22 79.51-7.35L79.51-7.35L79.51 0L76.22 0L76.22-10.57ZM98.96-2.97L98.96-2.97Q98.96-3.39 98.52-3.64Q98.08-3.90 96.85-4.17Q95.62-4.44 94.81-4.89Q94.01-5.33 93.59-5.97Q93.17-6.60 93.17-7.42L93.17-7.42Q93.17-8.88 94.38-9.82Q95.58-10.76 97.52-10.76L97.52-10.76Q99.61-10.76 100.88-9.81Q102.15-8.87 102.15-7.32L102.15-7.32L98.85-7.32Q98.85-8.59 97.51-8.59L97.51-8.59Q96.99-8.59 96.64-8.31Q96.29-8.02 96.29-7.59L96.29-7.59Q96.29-7.15 96.72-6.88Q97.15-6.60 98.09-6.43Q99.03-6.25 99.75-6.01L99.75-6.01Q102.13-5.19 102.13-3.07L102.13-3.07Q102.13-1.62 100.84-0.71Q99.56 0.20 97.52 0.20L97.52 0.20Q96.16 0.20 95.10-0.29Q94.03-0.78 93.44-1.62Q92.84-2.46 92.84-3.39L92.84-3.39L95.92-3.39Q95.94-2.66 96.41-2.32Q96.88-1.98 97.61-1.98L97.61-1.98Q98.28-1.98 98.62-2.26Q98.96-2.53 98.96-2.97Z"></path></g></g></svg><style>@media (prefers-color-scheme: light) { :root { filter: none; } }
@media (prefers-color-scheme: dark) { :root { filter: none; } }
</style></svg></svg></g></g></svg></g></svg>